<svg viewBox="0 -85 512 512" xmlns="http://www.w3.org/2000/svg"><path d="m413.691406 144.832031c-5.238281 0-10.382812.417969-15.40625 1.210938l-36.757812-138.605469c-1.164063-4.382812-5.132813-7.4375-9.667969-7.4375h-75.691406c-5.523438 0-10 4.476562-10 10s4.476562 10 10 10h68l6.667969 25.144531c-43.246094 1.6875-81.042969 15.167969-112.703126 33.105469-28.550781 15.972656-52.90625 36.042969-73.054687 56.40625v-74.441406c0-5.519532-4.480469-10-10-10h-69.386719c-5.519531 0-10 4.480468-10 10 0 5.523437 4.480469 10 10 10h59.386719v86.222656c-.03125.035156-.0625.070312-.09375.109375-13.96875-7.511719-29.894531-11.714844-46.675781-11.714844-54.207032 0-98.308594 44.101563-98.308594 98.308594s44.101562 98.308594 98.308594 98.308594c42.332031 0 79.71875-27.148438 93.113281-66.765625h81.164063c17.085937 0 30.984374-13.898438 30.984374-30.988282 0-13.496093-8.675781-24.996093-20.742187-29.238281 11.742187-19.390625 26.058594-42.542969 38.261719-60.847656 15.8125-23.71875 37.304687-32.9375 48.875-36.347656l8.992187 33.917969c-37.113281 14.0625-63.570312 49.976562-63.570312 91.960937 0 54.207031 44.101562 98.308594 98.308593 98.308594 54.207032 0 98.304688-44.101563 98.304688-98.308594s-44.101562-98.308594-98.308594-98.308594zm-169.226562-47.128906c26.632812-15.410156 57.199218-27 91.640625-31.082031-30.144531 38.457031-93.683594 53.453125-131.351563 59.109375 11.722656-9.761719 25-19.394531 39.710938-28.027344zm-146.15625 223.746094c-43.179688 0-78.308594-35.128907-78.308594-78.308594s35.128906-78.308594 78.308594-78.308594c33.371094 0 62.515625 20.816407 73.613281 51.550781-9.734375 5.230469-16.371094 15.511719-16.371094 27.3125 0 11.664063 6.476563 21.835938 16.023438 27.125-11.378907 30.160157-40.457031 50.628907-73.265625 50.628907zm174.273437-66.765625h-86.042969c-6.058593 0-10.988281-4.929688-10.988281-10.988282 0-6.054687 4.929688-10.984374 10.988281-10.984374h86.042969c6.058594 0 10.988281 4.929687 10.988281 10.984374 0 6.058594-4.929687 10.988282-10.988281 10.988282zm31.867188-112.167969c-6.855469 10.28125-14.347657 22.039063-21.683594 33.808594h-43.765625c-5.523438 0-10 4.480469-10 10 0 5.523437 4.476562 10 10 10h31.445312c-3.5 5.738281-6.84375 11.269531-9.921874 16.386719h-68.722657c-5.789062-17.90625-16.390625-33.289063-30.160156-44.863282 5.4375-6.308594 11.3125-12.710937 17.621094-19.085937 22.359375-1.535157 135.910156-12.660157 178.023437-77.4375l7.234375 26.730469c-14.71875 4.339843-40.925781 15.738281-60.070312 44.460937zm109.242187 178.933594c-43.179687 0-78.308594-35.128907-78.308594-78.308594 0-32.71875 20.179688-60.796875 48.738282-72.492187l9.65625 36.421874c-12.6875 7.03125-21.300782 20.5625-21.300782 36.070313 0 22.726563 18.488282 41.214844 41.214844 41.214844 22.726563 0 41.214844-18.488281 41.214844-41.214844s-18.488281-41.214844-41.214844-41.214844c-.195312 0-.386718.011719-.582031.011719l-9.65625-36.414062c3.351563-.4375 6.765625-.691407 10.238281-.691407 43.179688 0 78.308594 35.128907 78.308594 78.308594s-35.128906 78.308594-78.308594 78.308594zm0-99.523438c11.699219 0 21.214844 9.515625 21.214844 21.214844s-9.515625 21.214844-21.214844 21.214844c-11.699218 0-21.214844-9.515625-21.214844-21.214844s9.515626-21.214844 21.214844-21.214844zm0 0"/><path d="m98.308594 201.925781c-22.726563 0-41.21875 18.488281-41.21875 41.214844s18.492187 41.214844 41.21875 41.214844c22.726562 0 41.214844-18.488281 41.214844-41.214844s-18.488282-41.214844-41.214844-41.214844zm0 62.429688c-11.699219 0-21.21875-9.515625-21.21875-21.214844s9.519531-21.214844 21.21875-21.214844c11.699218 0 21.214844 9.515625 21.214844 21.214844s-9.515626 21.214844-21.214844 21.214844zm0 0"/><path d="m204.84375 177.941406-.292969.191406c-4.632812 3.011719-5.945312 9.203126-2.933593 13.835938 1.914062 2.945312 5.121093 4.550781 8.394531 4.550781 1.867187 0 3.757812-.523437 5.4375-1.617187l.296875-.191406c4.632812-3.011719 5.945312-9.207032 2.933594-13.835938-3.007813-4.632812-9.203126-5.941406-13.835938-2.933594zm0 0"/></svg>