<svg height="512pt" viewBox="-88 0 512 512.02483" width="512pt" xmlns="http://www.w3.org/2000/svg"><path d="m224.011719 46.640625c-8.847657-23.242187-31.128907-38.601563-56-38.601563-24.867188 0-47.152344 15.359376-56 38.601563v42.800781c8.847656 23.242188 31.132812 38.601563 56 38.601563 24.871093 0 47.152343-15.359375 56-38.601563zm-56 53.359375c-17.671875 0-32-14.324219-32-32 0-17.671875 14.328125-32 32-32s32 14.328125 32 32c0 17.675781-14.328125 32-32 32zm0 0" fill="#acabb1"/><path d="m48.011719 210.496094v179.199218l10.328125 10.304688h57.671875v-65.742188c0-25.546874 20.710937-46.257812 46.257812-46.257812h11.488281c25.546876 0 46.253907 20.710938 46.253907 46.257812v65.742188h57.671875l10.328125-10.328125v-179.199219c-.011719-45.550781-36.945313-82.472656-82.496094-82.472656h-75.007813c-45.5625 0-82.496093 36.933594-82.496093 82.496094zm128 13.503906" fill="#acabb1"/><path d="m192.011719 400h-76v57.746094c0 25.546875 20.710937 46.253906 46.257812 46.253906h11.488281c25.546876 0 46.253907-20.707031 46.253907-46.253906v-57.746094zm0 0" fill="#414042"/><path d="m173.757812 288h-11.488281c-25.546875 0-46.257812 20.710938-46.257812 46.257812v65.742188h104v-65.742188c0-25.546874-20.707031-46.257812-46.253907-46.257812zm0 0" fill="#414042"/><path d="m112.011719 46.601562v-15.800781l-40 20v40l40 10v-11.398437c-5.332031-13.769532-5.332031-29.035156 0-42.800782zm0 0" fill="#acabb1"/><path d="m112.011719 46.640625c-5.332031 13.769531-5.332031 29.03125 0 42.800781zm0 0" fill="#acabb1"/><path d="m8.011719 56h64v32h-64zm0 0" fill="#414042"/><path d="m264.011719 50.800781-40-20v15.800781c5.332031 13.765626 5.332031 29.03125 0 42.800782v11.398437l40-10zm0 0" fill="#acabb1"/><path d="m224.011719 46.601562v42.800782c5.332031-13.769532 5.332031-29.035156 0-42.800782zm0 0" fill="#acabb1"/><path d="m264.011719 56h64v32h-64zm0 0" fill="#414042"/><path d="m200.011719 68c0 17.675781-14.328125 32-32 32s-32-14.324219-32-32c0-17.671875 14.328125-32 32-32s32 14.328125 32 32zm0 0" fill="#006df0"/><g fill="#231f20"><path d="m328.011719 48h-56.566407c-.753906-2.0625-2.328124-3.722656-4.351562-4.582031l-47.777344-19.90625c-12.867187-14.925781-31.597656-23.511719-51.304687-23.511719s-38.4375 8.585938-51.304688 23.511719l-47.773437 19.90625c-2.023438.859375-3.601563 2.519531-4.351563 4.582031h-56.570312c-4.417969 0-8.0000002 3.582031-8.0000002 8v32c0 4.417969 3.5820312 8 8.0000002 8h58.007812c1.011719 1.203125 2.363281 2.074219 3.871094 2.503906l45.523437 12.527344c2.761719 3.375 5.84375 6.476562 9.199219 9.265625-47.539062 3.132813-84.519531 42.558594-84.601562 90.199219v179.199218c0 2.121094.839843 4.148438 2.335937 5.648438l10.328125 10.335938c1.503907 1.503906 3.539063 2.347656 5.664063 2.34375h45.671875v48c.035156 30.914062 25.085937 55.964843 56 56h16c30.914062-.035157 55.964843-25.085938 56-56v-48.023438h45.671875c2.125.003906 4.164062-.839844 5.664062-2.34375l10.328125-10.335938c1.496094-1.5 2.335938-3.53125 2.335938-5.648437v-179.199219c-.09375-47.628906-37.070313-87.046875-84.597657-90.175781 3.351563-2.789063 6.433594-5.890625 9.199219-9.265625l45.519531-12.527344c1.511719-.429687 2.859376-1.300781 3.871094-2.503906h58.007813c4.417969 0 8-3.582031 8-8v-32c0-4.417969-3.582031-8-8-8zm-160-32c17.46875.015625 33.761719 8.800781 43.375 23.386719l5.3125 10.535156c4.402343 11.617187 4.417969 24.441406.042969 36.070313l-7.203126 13.175781c-9.777343 13.109375-25.171874 20.832031-41.527343 20.832031s-31.75-7.722656-41.527344-20.832031l-7.199219-13.175781c-4.394531-11.625-4.394531-24.453126 0-36.078126l5.3125-10.527343c9.621094-14.597657 25.933594-23.386719 43.414063-23.386719zm-152 48h48v16h-48zm64 20.703125v-28.566406l23.617187-9.847657c-5.023437 14.644532-4.808594 30.578126.609375 45.078126zm136 371.296875c-.027344 22.082031-17.917969 39.972656-40 40h-16c-22.078125-.027344-39.972657-17.917969-40-40v-120c.027343-22.078125 17.921875-39.972656 40-40h16c22.082031.027344 39.972656 17.921875 40 40zm-10.496094-320c41.125.050781 74.449219 33.375 74.496094 74.496094v175.90625l-5.597657 5.597656h-42.402343v-56c-.035157-30.914062-25.085938-55.964844-56-56h-16c-30.914063.035156-55.964844 25.085938-56 56v56h-42.398438l-5.601562-5.597656v-175.90625c.050781-41.121094 33.375-74.445313 74.496093-74.496094zm30.496094-68c-.007813-7.386719-1.230469-14.71875-3.617188-21.710938l23.617188 9.847657v28.566406l-24.222657 6.664063c2.773438-7.476563 4.203126-15.390626 4.222657-23.367188zm84 12h-48v-16h48zm0 0"/><path d="m248.011719 232h8c4.417969 0 8-3.582031 8-8s-3.582031-8-8-8h-8c-4.417969 0-8 3.582031-8 8s3.582031 8 8 8zm0 0"/><path d="m208.011719 232h8c4.417969 0 8-3.582031 8-8s-3.582031-8-8-8h-8c-4.417969 0-8 3.582031-8 8s3.582031 8 8 8zm0 0"/><path d="m168.011719 232h8c4.417969 0 8-3.582031 8-8s-3.582031-8-8-8h-8c-4.417969 0-8 3.582031-8 8s3.582031 8 8 8zm0 0"/><path d="m168.011719 108c22.09375 0 40-17.90625 40-40 0-22.089844-17.90625-40-40-40-22.089844 0-40 17.910156-40 40 .027343 22.082031 17.921875 39.972656 40 40zm0-64c13.253906 0 24 10.746094 24 24s-10.746094 24-24 24c-13.253907 0-24-10.746094-24-24s10.746093-24 24-24zm0 0"/><path d="m168.011719 312c-4.417969 0-8 3.582031-8 8v144c0 4.417969 3.582031 8 8 8s8-3.582031 8-8v-144c0-4.417969-3.582031-8-8-8zm0 0"/><path d="m144.011719 312c-4.417969 0-8 3.582031-8 8v144c0 4.417969 3.582031 8 8 8s8-3.582031 8-8v-144c0-4.417969-3.582031-8-8-8zm0 0"/><path d="m192.011719 312c-4.417969 0-8 3.582031-8 8v144c0 4.417969 3.582031 8 8 8s8-3.582031 8-8v-144c0-4.417969-3.582031-8-8-8zm0 0"/></g></svg>